<svg width="1216" height="800" viewBox="0 0 1216 800" fill="none" xmlns="http://www.w3.org/2000/svg">
<g clip-path="url(#clip0_1417_75501)">
<path d="M0 16C0 7.16343 7.16344 0 16 0H1200C1208.84 0 1216 7.16344 1216 16V800H0V16Z" fill="#2A2A2A"/>
<g filter="url(#filter0_ddd_1417_75501)">
<g clip-path="url(#clip1_1417_75501)">
<rect width="1216" height="810.667" rx="16" fill="#EBEBEB"/>
<rect width="1216" height="41.04" fill="#787878"/>
<circle opacity="0.1" cx="20.5199" cy="20.52" r="6.84" fill="white"/>
<circle opacity="0.1" cx="43.32" cy="20.5199" r="6.84" fill="white"/>
<circle opacity="0.1" cx="66.12" cy="20.52" r="6.84" fill="white"/>
<rect width="74.7333" height="770.133" transform="translate(0 41.04)" fill="#383838"/>
<rect x="14.5667" y="56.24" width="45.6" height="45.6" rx="22.8" fill="#5A5A5A"/>
<path d="M30.5509 90.2945H34.5249C34.7111 90.2945 34.8353 90.1703 34.8353 89.984V88.1833C34.8353 88.028 34.9285 87.9349 35.0837 87.9349H39.6476C39.8028 87.9349 39.896 88.028 39.896 88.1833V89.984C39.896 90.1703 40.0201 90.2945 40.2064 90.2945H44.3356C44.5219 90.2945 44.6461 90.1703 44.6461 89.984V78.3725C44.6461 78.2172 44.7393 78.1241 44.8945 78.1241H46.9746C47.1299 78.1241 47.223 78.2172 47.223 78.3725V87.6244C47.223 87.8107 47.3472 87.9349 47.5335 87.9349H49.179C49.3652 87.9349 49.4894 87.8107 49.4894 87.6244V71.3559C49.4894 71.1696 49.3652 71.0454 49.179 71.0454H47.4714C47.3161 71.0454 47.223 70.9523 47.223 70.7971V68.8722C47.223 68.6859 47.0988 68.5617 46.9125 68.5617H28.0361C27.8498 68.5617 27.7256 68.6859 27.7256 68.8722V70.7971C27.7256 70.9523 27.6325 71.0454 27.4772 71.0454H25.6144C25.4281 71.0454 25.304 71.1696 25.304 71.3559V87.6244C25.304 87.8107 25.4281 87.9349 25.6144 87.9349H27.4151C27.6014 87.9349 27.7256 87.8107 27.7256 87.6244V78.3725C27.7256 78.2172 27.8187 78.1241 27.974 78.1241H29.992C30.1473 78.1241 30.2404 78.2172 30.2404 78.3725V89.984C30.2404 90.1703 30.3646 90.2945 30.5509 90.2945ZM32.4758 73.0324V71.2938C32.4758 71.1386 32.5689 71.0454 32.7241 71.0454H42.0382C42.1934 71.0454 42.2866 71.1386 42.2866 71.2938V73.0324C42.2866 73.1877 42.1934 73.2808 42.0382 73.2808H32.7241C32.5689 73.2808 32.4758 73.1877 32.4758 73.0324ZM32.5068 82.8743V78.3725C32.5068 78.2172 32.6 78.1241 32.7552 78.1241H34.5249C34.7111 78.1241 34.8353 77.9999 34.8353 77.8136V75.9819C34.8353 75.8266 34.9285 75.7335 35.0837 75.7335H39.6476C39.8028 75.7335 39.896 75.8266 39.896 75.9819V77.8136C39.896 77.9999 40.0201 78.1241 40.2064 78.1241H42.0382C42.1934 78.1241 42.2866 78.2172 42.2866 78.3725V82.8743C42.2866 83.0295 42.1934 83.1226 42.0382 83.1226H40.2064C40.0201 83.1226 39.896 83.2468 39.896 83.4331V85.2649C39.896 85.4201 39.8028 85.5132 39.6476 85.5132H37.5985C37.4433 85.5132 37.3501 85.4201 37.3501 85.2649V83.4331C37.3501 83.2468 37.2259 83.1226 37.0396 83.1226H32.7552C32.6 83.1226 32.5068 83.0295 32.5068 82.8743Z" fill="#7B7B7B"/>
<circle opacity="0.2" cx="37.3666" cy="151.24" r="11.4" fill="#EBEBEB"/>
<rect opacity="0.2" x="22.04" y="200.64" width="30.6533" height="21.7867" rx="2.53333" fill="#EBEBEB"/>
<path opacity="0.2" d="M35.1007 264.958C36.0343 263.091 38.6988 263.091 39.6324 264.958L47.6934 281.08C48.5356 282.765 47.3108 284.747 45.4275 284.747H29.3056C27.4223 284.747 26.1975 282.765 27.0397 281.08L35.1007 264.958Z" fill="#EBEBEB"/>
<circle opacity="0.2" cx="37.3666" cy="334.147" r="11.4" fill="#EBEBEB"/>
<rect opacity="0.2" x="25.2065" y="383.547" width="24.32" height="24.32" rx="6.08" fill="#EBEBEB"/>
<path opacity="0.2" d="M35.1007 450.398C36.0343 448.531 38.6988 448.531 39.6324 450.398L47.6934 466.52C48.5356 468.205 47.3108 470.187 45.4275 470.187H29.3056C27.4223 470.187 26.1975 468.205 27.0397 466.52L35.1007 450.398Z" fill="#EBEBEB"/>
<circle opacity="0.5" cx="37.3668" cy="764.053" r="20.2667" fill="#5C5C5C"/>
<rect width="1173.96" height="831.187" transform="translate(74.7332 41.04)" fill="#454545"/>
<rect width="1140" height="68.4" transform="translate(74.7332 41.04)" fill="#5A5A5A"/>
<rect opacity="0.1" x="295" y="55.04" width="252.067" height="40" rx="20" fill="#EBEBEB"/>
<circle opacity="0.3" cx="317.4" cy="74.7334" r="11.4" fill="#D8D8D8"/>
<rect opacity="0.2" x="97.9998" y="55.04" width="180" height="40" rx="6.08" fill="white"/>
<circle opacity="0.1" cx="960.513" cy="74.9867" r="9.12" fill="white"/>
<path opacity="0.1" d="M1013.88 68.0913C1014.58 66.6909 1016.58 66.6909 1017.28 68.0913L1023.33 80.1827C1023.96 81.446 1023.04 82.9324 1021.63 82.9324H1009.54C1008.12 82.9324 1007.2 81.446 1007.84 80.1827L1013.88 68.0913Z" fill="white"/>
<circle opacity="0.1" cx="1070.65" cy="74.9867" r="9.12" fill="white"/>
<rect opacity="0.1" x="1117.77" y="65.8667" width="18.24" height="18.24" rx="4.56" fill="white"/>
<path opacity="0.1" d="M1180.26 68.0913C1180.96 66.6909 1182.96 66.6909 1183.66 68.0913L1189.7 80.1828C1190.33 81.4461 1189.42 82.9325 1188 82.9325H1175.91C1174.5 82.9325 1173.58 81.4461 1174.21 80.1828L1180.26 68.0913Z" fill="white"/>
<rect opacity="0.2" x="92.9731" y="133.76" width="80.0533" height="8.10667" rx="4.05333" fill="white"/>
<rect opacity="0.1" x="92.9731" y="160.107" width="64.8533" height="8.10667" rx="4.05333" fill="white"/>
<rect opacity="0.1" x="92.9731" y="186.453" width="85.12" height="8.10667" rx="4.05333" fill="white"/>
<rect opacity="0.1" x="92.9731" y="212.8" width="105.387" height="8.10667" rx="4.05333" fill="white"/>
<rect opacity="0.1" x="92.9731" y="239.147" width="89.1733" height="8.10667" rx="4.05333" fill="white"/>
<g opacity="0.5">
<rect opacity="0.1" x="295.295" y="128.947" width="110.2" height="15.2" rx="4.05333" fill="white"/>
<rect opacity="0.1" x="410.562" y="128.947" width="57" height="15.2" rx="4.05333" fill="white"/>
</g>
<g opacity="0.66">
<g clip-path="url(#clip2_1417_75501)">
<rect x="295.295" y="159.707" width="297.532" height="103.867" rx="4" fill="#656565"/>
</g>
</g>
<g opacity="0.66">
<rect x="295.295" y="279.573" width="297.532" height="100.067" rx="4" fill="#656565"/>
</g>
<g opacity="0.66">
<rect x="295.295" y="395.64" width="297.532" height="76" rx="4" fill="#656565"/>
</g>
<g opacity="0.66">
<rect x="295.295" y="487.64" width="297.532" height="202.667" rx="4" fill="#656565"/>
</g>
<g opacity="0.66">
<rect x="295.295" y="706.307" width="297.532" height="76" rx="4" fill="#656565"/>
</g>
<g opacity="0.5">
<rect opacity="0.1" x="623.227" y="128.947" width="78.5333" height="15.2" rx="4.05333" fill="white"/>
</g>
<g opacity="0.66">
<g clip-path="url(#clip3_1417_75501)">
<rect x="623.227" y="159.707" width="297.532" height="164.667" rx="4" fill="#656565"/>
</g>
</g>
<g opacity="0.66">
<rect x="623.227" y="340.373" width="297.532" height="100.067" rx="4" fill="#656565"/>
</g>
<g opacity="0.66">
<rect x="623.227" y="456.44" width="297.532" height="76" rx="4" fill="#656565"/>
</g>
<g opacity="0.5">
<rect opacity="0.1" x="951.159" y="128.947" width="57" height="15.2" rx="4.05333" fill="white"/>
<rect opacity="0.1" x="1013.23" y="128.947" width="34.2" height="15.2" rx="4.05333" fill="white"/>
<rect opacity="0.1" x="1052.49" y="128.947" width="110.2" height="15.2" rx="4.05333" fill="white"/>
</g>
<g opacity="0.66">
<g clip-path="url(#clip4_1417_75501)">
<rect x="951.159" y="159.707" width="297.532" height="149.467" rx="4" fill="#656565"/>
</g>
</g>
<g opacity="0.66">
<rect x="951.159" y="325.173" width="297.532" height="186.2" rx="4" fill="#656565"/>
</g>
<g opacity="0.66">
<rect x="951.159" y="527.373" width="297.532" height="76" rx="4" fill="#656565"/>
</g>
<g opacity="0.66">
<rect x="951.159" y="619.373" width="297.532" height="202.667" rx="4" fill="#656565"/>
</g>
</g>
</g>
</g>
<defs>
<filter id="filter0_ddd_1417_75501" x="-48.64" y="-16.2133" width="1313.28" height="907.947" filterUnits="userSpaceOnUse" color-interpolation-filters="sRGB">
<feFlood flood-opacity="0" result="BackgroundImageFix"/>
<feColorMatrix in="SourceAlpha" type="matrix" values="0 0 0 0 0 0 0 0 0 0 0 0 0 0 0 0 0 0 127 0" result="hardAlpha"/>
<feOffset dy="4.05333"/>
<feGaussianBlur stdDeviation="4.05333"/>
<feColorMatrix type="matrix" values="0 0 0 0 0.146039 0 0 0 0 0.144549 0 0 0 0 0.15349 0 0 0 0.1 0"/>
<feBlend mode="normal" in2="BackgroundImageFix" result="effect1_dropShadow_1417_75501"/>
<feColorMatrix in="SourceAlpha" type="matrix" values="0 0 0 0 0 0 0 0 0 0 0 0 0 0 0 0 0 0 127 0" result="hardAlpha"/>
<feOffset dy="32.4267"/>
<feGaussianBlur stdDeviation="24.32"/>
<feColorMatrix type="matrix" values="0 0 0 0 0.146039 0 0 0 0 0.144549 0 0 0 0 0.15349 0 0 0 0.1 0"/>
<feBlend mode="normal" in2="effect1_dropShadow_1417_75501" result="effect2_dropShadow_1417_75501"/>
<feColorMatrix in="SourceAlpha" type="matrix" values="0 0 0 0 0 0 0 0 0 0 0 0 0 0 0 0 0 0 127 0" result="hardAlpha"/>
<feOffset/>
<feGaussianBlur stdDeviation="2.02667"/>
<feColorMatrix type="matrix" values="0 0 0 0 0.146039 0 0 0 0 0.144549 0 0 0 0 0.15349 0 0 0 0.1 0"/>
<feBlend mode="normal" in2="effect2_dropShadow_1417_75501" result="effect3_dropShadow_1417_75501"/>
<feBlend mode="normal" in="SourceGraphic" in2="effect3_dropShadow_1417_75501" result="shape"/>
</filter>
<clipPath id="clip0_1417_75501">
<path d="M0 16C0 7.16343 7.16344 0 16 0H1200C1208.84 0 1216 7.16344 1216 16V800H0V16Z" fill="white"/>
</clipPath>
<clipPath id="clip1_1417_75501">
<rect width="1216" height="810.667" rx="16" fill="white"/>
</clipPath>
<clipPath id="clip2_1417_75501">
<rect x="295.295" y="159.707" width="297.532" height="103.867" rx="4" fill="white"/>
</clipPath>
<clipPath id="clip3_1417_75501">
<rect x="623.227" y="159.707" width="297.532" height="164.667" rx="4" fill="white"/>
</clipPath>
<clipPath id="clip4_1417_75501">
<rect x="951.159" y="159.707" width="297.532" height="149.467" rx="4" fill="white"/>
</clipPath>
</defs>
</svg>
