<svg width="1224" height="808" viewBox="0 0 1224 808" fill="none" xmlns="http://www.w3.org/2000/svg">
<g filter="url(#filter0_d_1417_27194)">
<g clip-path="url(#clip0_1417_27194)">
<path d="M0 16C0 7.16343 7.16344 0 16 0H1200C1208.84 0 1216 7.16344 1216 16V800H0V16Z" fill="#24242F"/>
<g filter="url(#filter1_ddd_1417_27194)">
<g clip-path="url(#clip1_1417_27194)">
<rect width="1216" height="810.667" rx="16" fill="#EBEBEB"/>
<rect width="1216" height="41.04" fill="#71717F"/>
<circle opacity="0.1" cx="20.5199" cy="20.5201" r="6.84" fill="white"/>
<circle opacity="0.1" cx="43.32" cy="20.5199" r="6.84" fill="white"/>
<circle opacity="0.1" cx="66.12" cy="20.5201" r="6.84" fill="white"/>
<rect width="74.7333" height="770.133" transform="translate(0 41.0399)" fill="#313140"/>
<rect x="14.5667" y="56.2399" width="45.6" height="45.6" rx="22.8" fill="white"/>
<path d="M30.5509 90.2943H34.5249C34.7111 90.2943 34.8353 90.1701 34.8353 89.9838V88.1831C34.8353 88.0279 34.9285 87.9347 35.0837 87.9347H39.6476C39.8028 87.9347 39.896 88.0279 39.896 88.1831V89.9838C39.896 90.1701 40.0201 90.2943 40.2064 90.2943H44.3356C44.5219 90.2943 44.6461 90.1701 44.6461 89.9838V78.3723C44.6461 78.2171 44.7393 78.1239 44.8945 78.1239H46.9746C47.1299 78.1239 47.223 78.2171 47.223 78.3723V87.6243C47.223 87.8105 47.3472 87.9347 47.5335 87.9347H49.179C49.3652 87.9347 49.4894 87.8105 49.4894 87.6243V71.3557C49.4894 71.1695 49.3652 71.0453 49.179 71.0453H47.4714C47.3161 71.0453 47.223 70.9521 47.223 70.7969V68.872C47.223 68.6857 47.0988 68.5615 46.9125 68.5615H28.0361C27.8498 68.5615 27.7256 68.6857 27.7256 68.872V70.7969C27.7256 70.9521 27.6325 71.0453 27.4772 71.0453H25.6144C25.4281 71.0453 25.304 71.1695 25.304 71.3557V87.6243C25.304 87.8105 25.4281 87.9347 25.6144 87.9347H27.4151C27.6014 87.9347 27.7256 87.8105 27.7256 87.6243V78.3723C27.7256 78.2171 27.8187 78.1239 27.974 78.1239H29.992C30.1473 78.1239 30.2404 78.2171 30.2404 78.3723V89.9838C30.2404 90.1701 30.3646 90.2943 30.5509 90.2943ZM32.4758 73.0323V71.2936C32.4758 71.1384 32.5689 71.0453 32.7241 71.0453H42.0382C42.1934 71.0453 42.2866 71.1384 42.2866 71.2936V73.0323C42.2866 73.1875 42.1934 73.2806 42.0382 73.2806H32.7241C32.5689 73.2806 32.4758 73.1875 32.4758 73.0323ZM32.5068 82.8741V78.3723C32.5068 78.2171 32.6 78.1239 32.7552 78.1239H34.5249C34.7111 78.1239 34.8353 77.9998 34.8353 77.8135V75.9817C34.8353 75.8265 34.9285 75.7333 35.0837 75.7333H39.6476C39.8028 75.7333 39.896 75.8265 39.896 75.9817V77.8135C39.896 77.9998 40.0201 78.1239 40.2064 78.1239H42.0382C42.1934 78.1239 42.2866 78.2171 42.2866 78.3723V82.8741C42.2866 83.0293 42.1934 83.1225 42.0382 83.1225H40.2064C40.0201 83.1225 39.896 83.2467 39.896 83.4329V85.2647C39.896 85.4199 39.8028 85.5131 39.6476 85.5131H37.5985C37.4433 85.5131 37.3501 85.4199 37.3501 85.2647V83.4329C37.3501 83.2467 37.2259 83.1225 37.0396 83.1225H32.7552C32.6 83.1225 32.5068 83.0293 32.5068 82.8741Z" fill="#4242CB"/>
<circle opacity="0.2" cx="37.3666" cy="151.24" r="11.4" fill="#EBEBEB"/>
<rect opacity="0.2" x="22.04" y="200.64" width="30.6533" height="21.7867" rx="2.53333" fill="#EBEBEB"/>
<path opacity="0.2" d="M35.1007 264.958C36.0343 263.091 38.6988 263.091 39.6324 264.958L47.6934 281.08C48.5356 282.765 47.3108 284.747 45.4275 284.747H29.3056C27.4223 284.747 26.1975 282.765 27.0397 281.08L35.1007 264.958Z" fill="#EBEBEB"/>
<circle opacity="0.2" cx="37.3666" cy="334.147" r="11.4" fill="#EBEBEB"/>
<rect opacity="0.2" x="25.2065" y="383.547" width="24.32" height="24.32" rx="6.08" fill="#EBEBEB"/>
<path opacity="0.2" d="M35.1007 450.398C36.0343 448.531 38.6988 448.531 39.6324 450.398L47.6934 466.52C48.5356 468.205 47.3108 470.187 45.4275 470.187H29.3056C27.4223 470.187 26.1975 468.205 27.0397 466.52L35.1007 450.398Z" fill="#EBEBEB"/>
<circle opacity="0.5" cx="37.3668" cy="764.053" r="20.2667" fill="#565662"/>
<rect width="1173.96" height="831.187" transform="translate(74.7332 41.0399)" fill="#3C3C4E"/>
<rect width="1140" height="68.4" transform="translate(74.7332 41.0399)" fill="#505064"/>
<rect opacity="0.1" x="295" y="55.0399" width="252.067" height="40" rx="20" fill="#EBEBEB"/>
<circle opacity="0.3" cx="317.4" cy="74.7333" r="11.4" fill="#D4D6DC"/>
<rect opacity="0.2" x="97.9998" y="55.0399" width="180" height="40" rx="6.08" fill="white"/>
<circle opacity="0.1" cx="960.513" cy="74.9866" r="9.12" fill="white"/>
<path opacity="0.1" d="M1013.88 68.0912C1014.58 66.6908 1016.58 66.6908 1017.28 68.0912L1023.33 80.1827C1023.96 81.446 1023.04 82.9324 1021.63 82.9324H1009.54C1008.12 82.9324 1007.2 81.446 1007.84 80.1827L1013.88 68.0912Z" fill="white"/>
<circle opacity="0.1" cx="1070.65" cy="74.9866" r="9.12" fill="white"/>
<rect opacity="0.1" x="1117.77" y="65.8666" width="18.24" height="18.24" rx="4.56" fill="white"/>
<path opacity="0.1" d="M1180.26 68.0912C1180.96 66.6908 1182.96 66.6908 1183.66 68.0912L1189.7 80.1827C1190.33 81.446 1189.42 82.9324 1188 82.9324H1175.91C1174.5 82.9324 1173.58 81.446 1174.21 80.1827L1180.26 68.0912Z" fill="white"/>
<rect opacity="0.2" x="92.9731" y="133.76" width="80.0533" height="8.10667" rx="4.05333" fill="white"/>
<rect opacity="0.1" x="92.9731" y="160.107" width="64.8533" height="8.10667" rx="4.05333" fill="white"/>
<rect opacity="0.1" x="92.9731" y="186.453" width="85.12" height="8.10667" rx="4.05333" fill="white"/>
<rect opacity="0.1" x="92.9731" y="212.8" width="105.387" height="8.10667" rx="4.05333" fill="white"/>
<rect opacity="0.1" x="92.9731" y="239.147" width="89.1733" height="8.10667" rx="4.05333" fill="white"/>
<g opacity="0.5">
<rect opacity="0.1" x="295.295" y="128.947" width="110.2" height="15.2" rx="4.05333" fill="white"/>
<rect opacity="0.1" x="410.562" y="128.947" width="57" height="15.2" rx="4.05333" fill="white"/>
</g>
<g opacity="0.66">
<g clip-path="url(#clip2_1417_27194)">
<rect x="295.295" y="159.707" width="297.532" height="103.867" rx="4" fill="#5B5B6F"/>
</g>
</g>
<g opacity="0.66">
<rect x="295.295" y="279.573" width="297.532" height="100.067" rx="4" fill="#5B5B6F"/>
</g>
<g opacity="0.66">
<rect x="295.295" y="395.64" width="297.532" height="76" rx="4" fill="#5B5B6F"/>
</g>
<g opacity="0.66">
<rect x="295.295" y="487.64" width="297.532" height="202.667" rx="4" fill="#5B5B6F"/>
</g>
<g opacity="0.66">
<rect x="295.295" y="706.307" width="297.532" height="76" rx="4" fill="#5B5B6F"/>
</g>
<g opacity="0.5">
<rect opacity="0.1" x="623.227" y="128.947" width="78.5333" height="15.2" rx="4.05333" fill="white"/>
</g>
<g opacity="0.66">
<g clip-path="url(#clip3_1417_27194)">
<rect x="623.227" y="159.707" width="297.532" height="164.667" rx="4" fill="#5B5B6F"/>
</g>
</g>
<g opacity="0.66">
<rect x="623.227" y="340.373" width="297.532" height="100.067" rx="4" fill="#5B5B6F"/>
</g>
<g opacity="0.66">
<rect x="623.227" y="456.44" width="297.532" height="76" rx="4" fill="#5B5B6F"/>
</g>
<g opacity="0.5">
<rect opacity="0.1" x="951.159" y="128.947" width="57" height="15.2" rx="4.05333" fill="white"/>
<rect opacity="0.1" x="1013.23" y="128.947" width="34.2" height="15.2" rx="4.05333" fill="white"/>
<rect opacity="0.1" x="1052.49" y="128.947" width="110.2" height="15.2" rx="4.05333" fill="white"/>
</g>
<g opacity="0.66">
<g clip-path="url(#clip4_1417_27194)">
<rect x="951.159" y="159.707" width="297.532" height="149.467" rx="4" fill="#5B5B6F"/>
</g>
</g>
<g opacity="0.66">
<rect x="951.159" y="325.173" width="297.532" height="186.2" rx="4" fill="#5B5B6F"/>
</g>
<g opacity="0.66">
<rect x="951.159" y="527.373" width="297.532" height="76" rx="4" fill="#5B5B6F"/>
</g>
<g opacity="0.66">
<rect x="951.159" y="619.373" width="297.532" height="202.667" rx="4" fill="#5B5B6F"/>
</g>
</g>
</g>
</g>
</g>
<defs>
<filter id="filter0_d_1417_27194" x="0" y="0" width="1224" height="808" filterUnits="userSpaceOnUse" color-interpolation-filters="sRGB">
<feFlood flood-opacity="0" result="BackgroundImageFix"/>
<feColorMatrix in="SourceAlpha" type="matrix" values="0 0 0 0 0 0 0 0 0 0 0 0 0 0 0 0 0 0 127 0" result="hardAlpha"/>
<feOffset dx="8" dy="8"/>
<feComposite in2="hardAlpha" operator="out"/>
<feColorMatrix type="matrix" values="0 0 0 0 0 0 0 0 0 0 0 0 0 0 0 0 0 0 0.25 0"/>
<feBlend mode="normal" in2="BackgroundImageFix" result="effect1_dropShadow_1417_27194"/>
<feBlend mode="normal" in="SourceGraphic" in2="effect1_dropShadow_1417_27194" result="shape"/>
</filter>
<filter id="filter1_ddd_1417_27194" x="-48.64" y="-16.2133" width="1313.28" height="907.947" filterUnits="userSpaceOnUse" color-interpolation-filters="sRGB">
<feFlood flood-opacity="0" result="BackgroundImageFix"/>
<feColorMatrix in="SourceAlpha" type="matrix" values="0 0 0 0 0 0 0 0 0 0 0 0 0 0 0 0 0 0 127 0" result="hardAlpha"/>
<feOffset dy="4.05333"/>
<feGaussianBlur stdDeviation="4.05333"/>
<feColorMatrix type="matrix" values="0 0 0 0 0.146039 0 0 0 0 0.144549 0 0 0 0 0.15349 0 0 0 0.1 0"/>
<feBlend mode="normal" in2="BackgroundImageFix" result="effect1_dropShadow_1417_27194"/>
<feColorMatrix in="SourceAlpha" type="matrix" values="0 0 0 0 0 0 0 0 0 0 0 0 0 0 0 0 0 0 127 0" result="hardAlpha"/>
<feOffset dy="32.4267"/>
<feGaussianBlur stdDeviation="24.32"/>
<feColorMatrix type="matrix" values="0 0 0 0 0.146039 0 0 0 0 0.144549 0 0 0 0 0.15349 0 0 0 0.1 0"/>
<feBlend mode="normal" in2="effect1_dropShadow_1417_27194" result="effect2_dropShadow_1417_27194"/>
<feColorMatrix in="SourceAlpha" type="matrix" values="0 0 0 0 0 0 0 0 0 0 0 0 0 0 0 0 0 0 127 0" result="hardAlpha"/>
<feOffset/>
<feGaussianBlur stdDeviation="2.02667"/>
<feColorMatrix type="matrix" values="0 0 0 0 0.146039 0 0 0 0 0.144549 0 0 0 0 0.15349 0 0 0 0.1 0"/>
<feBlend mode="normal" in2="effect2_dropShadow_1417_27194" result="effect3_dropShadow_1417_27194"/>
<feBlend mode="normal" in="SourceGraphic" in2="effect3_dropShadow_1417_27194" result="shape"/>
</filter>
<clipPath id="clip0_1417_27194">
<path d="M0 16C0 7.16343 7.16344 0 16 0H1200C1208.84 0 1216 7.16344 1216 16V800H0V16Z" fill="white"/>
</clipPath>
<clipPath id="clip1_1417_27194">
<rect width="1216" height="810.667" rx="16" fill="white"/>
</clipPath>
<clipPath id="clip2_1417_27194">
<rect x="295.295" y="159.707" width="297.532" height="103.867" rx="4" fill="white"/>
</clipPath>
<clipPath id="clip3_1417_27194">
<rect x="623.227" y="159.707" width="297.532" height="164.667" rx="4" fill="white"/>
</clipPath>
<clipPath id="clip4_1417_27194">
<rect x="951.159" y="159.707" width="297.532" height="149.467" rx="4" fill="white"/>
</clipPath>
</defs>
</svg>
