<svg width="1216" height="214" viewBox="0 0 1216 214" fill="none" xmlns="http://www.w3.org/2000/svg">
<g opacity="0.1">
<path d="M1075.22 179.931V125.405C1086.08 127.867 1093.73 134.49 1098.89 143.592C1104.54 153.553 1107.19 166.496 1107.4 179.968C1107.41 181.47 1107.86 183.19 1109.27 184.492C1110.63 185.756 1112.28 186.069 1113.54 186.069H1146.03C1147.54 186.069 1149.23 185.553 1150.48 184.203C1151.72 182.865 1152.14 181.136 1151.93 179.512C1149.62 145.75 1142.8 122.02 1119.89 102.992C1129.88 95.5841 1136.38 87.7916 1140.61 77.5534C1145.12 66.63 1146.91 53.2042 1148.09 35.1843C1148.27 33.633 1147.96 31.8716 1146.73 30.445C1145.45 28.9756 1143.7 28.4502 1142.18 28.4502H1109.69C1108.44 28.4502 1106.78 28.7632 1105.42 30.0266C1104.02 31.3243 1103.56 33.0359 1103.55 34.5337C1103.34 43.6902 1101.64 54.1406 1096.93 62.8488C1092.66 70.7336 1085.92 77.2598 1075.22 80.2112V34.5876C1075.22 33.0374 1074.68 31.4347 1073.46 30.2096C1072.23 28.9844 1070.63 28.4502 1069.08 28.4502H1036.59C1035.04 28.4502 1033.44 28.9844 1032.21 30.2096C1030.99 31.4347 1030.45 33.0374 1030.45 34.5876V179.931C1030.45 181.481 1030.99 183.084 1032.21 184.309C1033.44 185.534 1035.04 186.069 1036.59 186.069H1069.08C1070.63 186.069 1072.23 185.534 1073.46 184.309C1074.68 183.084 1075.22 181.481 1075.22 179.931Z" fill="white" stroke="black" stroke-width="8"/>
<path d="M1173.58 33.9525V33.9843L1173.58 34.016L1173.61 34.7717L1173.41 34.6615C1172.17 33.9506 1170.83 34.5584 1170.27 35.4962L1170.24 35.54L1170.22 35.5852L1168.96 37.9428C1168.27 39.175 1168.88 40.5008 1169.81 41.0607L1169.87 41.0966L1169.93 41.1282L1171.44 41.897L1170.34 43.2649L1170.34 43.2649L1170.33 43.2726C1170.01 43.6755 1169.72 44.3043 1169.84 45.0625C1169.96 45.7812 1170.38 46.2563 1170.7 46.5176L1170.75 46.55L1170.79 46.5803L1172.96 48.1441C1173.37 48.4469 1173.97 48.6998 1174.7 48.5858C1175.41 48.4723 1175.89 48.0507 1176.15 47.7241L1176.16 47.7081L1176.18 47.6919L1177.28 46.2498L1178.53 47.7477C1178.86 48.1447 1179.41 48.5518 1180.17 48.592C1180.87 48.6283 1181.39 48.3459 1181.71 48.1059L1183.86 46.5414L1183.89 46.5148L1183.93 46.4866C1184.33 46.1631 1184.75 45.6044 1184.8 44.8247C1184.83 44.0972 1184.52 43.5504 1184.27 43.2416L1184.25 43.2118L1184.22 43.1829L1183.14 41.9311L1184.72 41.1346C1184.72 41.1339 1184.72 41.1332 1184.72 41.1325C1185.28 40.8534 1185.76 40.3392 1185.93 39.6371C1186.09 38.9915 1185.95 38.3873 1185.69 37.9343L1184.4 35.5674L1184.38 35.5314L1184.36 35.4962C1183.8 34.5584 1182.46 33.9506 1181.23 34.6615L1181.03 34.7717L1181.05 34.016L1181.05 33.9843V33.9525C1181.05 33.405 1180.86 32.7934 1180.38 32.3136C1179.9 31.8338 1179.29 31.6426 1178.74 31.6426H1175.89C1175.34 31.6426 1174.73 31.8338 1174.25 32.3136C1173.77 32.7934 1173.58 33.405 1173.58 33.9525Z" fill="white" stroke="black" stroke-width="4"/>
<path d="M967.777 54.8658H941.914C940.393 54.8658 938.824 55.3899 937.625 56.5884C936.427 57.7868 935.903 59.356 935.903 60.8776V95.049H902.586C901.064 95.049 899.495 95.5732 898.297 96.7716C897.098 97.9701 896.574 99.5392 896.574 101.061V124.786C896.574 126.308 897.098 127.877 898.297 129.075C899.495 130.274 901.064 130.798 902.586 130.798H935.903V164.969C935.903 166.491 936.427 168.06 937.625 169.259C938.824 170.457 940.393 170.981 941.914 170.981H967.777C969.299 170.981 970.868 170.457 972.066 169.259C973.265 168.06 973.789 166.491 973.789 164.969V130.798H1006.68C1008.2 130.798 1009.77 130.274 1010.97 129.075C1012.17 127.877 1012.69 126.308 1012.69 124.786V101.061C1012.69 99.5392 1012.17 97.9701 1010.97 96.7716C1009.77 95.5732 1008.2 95.049 1006.68 95.049H973.789V60.8776C973.789 59.356 973.265 57.7868 972.066 56.5884C970.868 55.3899 969.299 54.8658 967.777 54.8658Z" fill="white" stroke="black" stroke-width="7.74885"/>
<path d="M802.409 148.411L802.409 148.403V148.396V139.197H809.631V148.39C809.557 169.177 826.494 186.008 847.244 186.008C868.075 186.008 884.926 169.167 884.926 148.396C884.926 127.557 868.08 110.721 847.258 110.643L847.251 110.643H847.244H838.255V103.35H847.237C868.084 103.424 884.926 86.5686 884.926 65.738C884.926 44.9668 868.075 28.1256 847.244 28.1256C826.494 28.1256 809.557 44.9574 809.631 65.7443V74.7964H802.409V65.738V65.7307L802.409 65.7233C802.331 44.9612 785.485 28.1256 764.586 28.1256C743.895 28.1256 726.973 44.9668 726.973 65.738C726.973 86.5686 743.886 103.424 764.592 103.35H773.785V110.643H764.586H764.578L764.571 110.643C743.89 110.721 726.973 127.557 726.973 148.396C726.973 169.167 743.895 186.008 764.586 186.008C785.485 186.008 802.331 169.173 802.409 148.411ZM764.586 74.7964H764.566L764.547 74.7966C759.667 74.8449 755.597 70.8167 755.597 65.738C755.597 60.7512 759.654 56.6795 764.586 56.6795C769.672 56.6795 773.726 60.7701 773.785 65.7591V74.7964H764.586ZM838.255 148.434L838.255 148.415V148.396V139.197H847.223C852.255 139.256 856.302 143.352 856.302 148.396C856.302 153.369 852.259 157.454 847.244 157.454C842.22 157.454 838.206 153.37 838.255 148.434ZM847.244 74.7964H838.255V65.738V65.7188L838.255 65.6996C838.206 60.764 842.22 56.6795 847.244 56.6795C852.259 56.6795 856.302 60.765 856.302 65.738C856.302 70.8026 852.247 74.8453 847.282 74.7966L847.263 74.7964H847.244ZM764.586 157.454C759.654 157.454 755.597 153.383 755.597 148.396C755.597 143.339 759.659 139.255 764.606 139.197H773.785V148.375C773.726 153.364 769.672 157.454 764.586 157.454ZM802.409 110.643V103.35H809.631V110.643H802.409Z" fill="white" stroke="black" stroke-width="7.74885"/>
<path d="M580.954 34.5876V60.4502C580.954 61.9719 581.478 63.541 582.676 64.7395C583.875 65.9379 585.444 66.462 586.966 66.462H623.061V179.931C623.061 181.453 623.585 183.022 624.783 184.22C625.982 185.419 627.551 185.943 629.072 185.943H661.561C663.083 185.943 664.652 185.419 665.85 184.22C667.049 183.022 667.573 181.453 667.573 179.931V34.5876C667.573 33.0659 667.049 31.4968 665.85 30.2984C664.652 29.0999 663.083 28.5758 661.561 28.5758H586.966C585.444 28.5758 583.875 29.0999 582.676 30.2984C581.478 31.4968 580.954 33.0659 580.954 34.5876Z" fill="white" stroke="black" stroke-width="7.74885"/>
<path d="M481.751 179.931V116.813L524.645 182.687L524.715 182.794L524.792 182.897C525.805 184.248 527.673 185.943 530.456 185.943H561.235C562.757 185.943 564.326 185.419 565.524 184.22C566.723 183.022 567.247 181.453 567.247 179.931V34.5876C567.247 33.0659 566.723 31.4967 565.524 30.2983C564.326 29.0999 562.757 28.5758 561.235 28.5758H528.746C527.225 28.5758 525.656 29.0999 524.457 30.2984C523.259 31.4969 522.735 33.066 522.735 34.5876V103.445L479.918 31.9556L479.814 31.7828L479.693 31.6217C478.68 30.2709 476.813 28.5758 474.029 28.5758H443.25C441.729 28.5758 440.159 29.0999 438.961 30.2983C437.763 31.4968 437.238 33.0659 437.238 34.5876V179.931C437.238 181.453 437.763 183.022 438.961 184.22C440.159 185.419 441.729 185.943 443.25 185.943H475.739C477.26 185.943 478.83 185.419 480.028 184.22C481.226 183.022 481.751 181.453 481.751 179.931Z" fill="white" stroke="black" stroke-width="7.74885"/>
<path d="M306.908 183.169L321.959 164.355H376.925V179.931C376.925 181.453 377.449 183.022 378.648 184.22C379.846 185.419 381.415 185.943 382.937 185.943H413.288C414.81 185.943 416.379 185.419 417.577 184.22C418.776 183.022 419.3 181.453 419.3 179.931V34.5876C419.3 33.0659 418.776 31.4967 417.577 30.2983C416.379 29.0999 414.81 28.5758 413.288 28.5758H382.509C381.08 28.5758 378.28 28.8505 376.542 31.5249L265.968 177.107C264.871 178.471 264.005 180.716 265.147 183C266.281 185.267 268.591 185.943 270.296 185.943H301.074C303.069 185.943 305.384 185.157 306.908 183.169ZM376.925 128.82H354.094L376.925 99.0133V128.82Z" fill="white" stroke="black" stroke-width="7.74885"/>
<path d="M300.147 31.2335L246.235 101.338V34.1601C246.235 32.8489 245.827 31.3452 244.646 30.1648C243.466 28.9844 241.962 28.5758 240.651 28.5758H218.636C217.53 28.5758 216.39 28.8633 215.365 29.5471C214.403 30.1879 213.745 31.041 213.301 31.8929L175.701 98.1682V34.1601C175.701 32.8489 175.292 31.3452 174.112 30.1648C172.932 28.9844 171.428 28.5758 170.117 28.5758H138.911C137.599 28.5758 136.096 28.9844 134.915 30.1648C133.735 31.3452 133.326 32.8489 133.326 34.1601V180.359C133.326 181.67 133.735 183.174 134.915 184.354C136.096 185.534 137.599 185.943 138.911 185.943H165.842C168.2 185.943 169.967 184.683 170.989 183.149L171.032 183.085L171.072 183.019L205.998 125.816V180.359C205.998 181.67 206.407 183.174 207.587 184.354C208.767 185.534 210.271 185.943 211.582 185.943H234.666C236.602 185.943 238.69 185.045 239.936 183.282L352.093 36.9445L352.17 36.8431L352.241 36.7368C353.047 35.5275 353.912 33.3263 352.649 31.1157C351.45 29.0178 349.26 28.5758 347.949 28.5758H305.415C303.48 28.5758 301.394 29.4727 300.147 31.2335Z" fill="white" stroke="black" stroke-width="7.74885"/>
<path d="M28.1256 34.5876V179.931C28.1256 181.453 28.6497 183.022 29.8482 184.22C31.0466 185.419 32.6157 185.943 34.1374 185.943H66.626C68.1477 185.943 69.7168 185.419 70.9152 184.22C72.1137 183.022 72.6378 181.453 72.6378 179.931V34.5876C72.6378 33.0659 72.1137 31.4968 70.9152 30.2984C69.7168 29.0999 68.1477 28.5758 66.626 28.5758H34.1374C32.6157 28.5758 31.0466 29.0999 29.8482 30.2984C28.6497 31.4968 28.1256 33.0659 28.1256 34.5876Z" fill="white" stroke="black" stroke-width="7.74885"/>
</g>
</svg>
