<svg width="20" height="16" viewBox="0 0 20 16" fill="none" xmlns="http://www.w3.org/2000/svg">
<path fill-rule="evenodd" clip-rule="evenodd" d="M17.984 3.98473C17.9917 4.15805 17.9956 4.33231 17.9956 4.50726C17.9956 9.84517 13.932 16 6.50071 16C4.21915 16 2.0955 15.3314 0.307617 14.1851C0.623695 14.2227 0.945212 14.2418 1.27142 14.2418C3.16426 14.2418 4.90625 13.5961 6.28903 12.5125C4.5211 12.48 3.02898 11.3122 2.51479 9.70736C2.7616 9.75467 3.01472 9.78005 3.27504 9.78005C3.64351 9.78005 4.00047 9.73042 4.33949 9.63829C2.49134 9.26709 1.09863 7.63464 1.09863 5.67762C1.09863 5.66056 1.09863 5.64362 1.099 5.62674C1.64363 5.92926 2.26654 6.11101 2.92889 6.13201C1.84475 5.40767 1.1317 4.17124 1.1317 2.76999C1.1317 2.02965 1.33093 1.33587 1.67877 0.739157C3.67132 3.18307 6.64831 4.79108 10.006 4.95971C9.93706 4.66395 9.90118 4.35563 9.90118 4.03911C9.90118 1.80852 11.7103 0 13.9413 0C15.1034 0 16.1534 0.490459 16.8903 1.27543C17.8105 1.09449 18.6752 0.758158 19.4559 0.295326C19.1543 1.23862 18.5137 2.03003 17.6795 2.53005C18.4968 2.43235 19.2754 2.21516 19.9999 1.89389C19.4584 2.70387 18.7735 3.41533 17.984 3.98473Z" fill="white"/>
</svg>
