<svg width="12" height="12" viewBox="0 0 12 12" fill="none" xmlns="http://www.w3.org/2000/svg">
<path d="M5.83027 2.46281C3.79174 2.534 2.21916 4.22627 2.28487 6.27068C2.35018 8.30373 4.04833 9.88179 6.08686 9.8106C8.11971 9.73962 9.70913 8.04107 9.63266 6.01409L11.7732 5.93366C11.8911 9.14741 9.36989 11.8393 6.16162 11.9513C2.94199 12.0638 0.250481 9.55391 0.143926 6.33976C0.0373713 3.12561 2.53588 0.434502 5.75551 0.322071L5.83027 2.46281ZM11.73 4.69578L10.1433 3.21616L6.74016 6.86556L5.17697 5.40786L8.58009 1.75846L6.99339 0.278843L11.5702 0.119019L11.73 4.69578Z" fill="white"/>
</svg>
